<svg width="16" height="17" viewBox="0 0 16 17" fill="none" xmlns="http://www.w3.org/2000/svg">
<path d="M1.86047 9.83592C2.88797 9.83592 3.72093 9.03998 3.72093 8.05814C3.72093 7.0763 2.88797 6.28036 1.86047 6.28036C0.832959 6.28036 0 7.0763 0 8.05814C0 9.03998 0.832959 9.83592 1.86047 9.83592Z" fill="white"/>
<path d="M7.44189 6.28038C8.46939 6.28038 9.30235 5.48444 9.30235 4.5026C9.30235 3.52076 8.46939 2.72482 7.44189 2.72482C6.41438 2.72482 5.58142 3.52076 5.58142 4.5026C5.58142 5.48444 6.41438 6.28038 7.44189 6.28038Z" fill="white"/>
<path opacity="0.5" d="M1.86047 14.2804C1.61376 14.2804 1.37715 14.1867 1.2027 14.02C1.02824 13.8533 0.930237 13.6272 0.930237 13.3915V0.947025C0.930237 0.711277 1.02824 0.485185 1.2027 0.318486C1.37715 0.151787 1.61376 0.058136 1.86047 0.058136C2.10718 0.058136 2.34379 0.151787 2.51824 0.318486C2.6927 0.485185 2.7907 0.711277 2.7907 0.947025V13.3915C2.7907 13.6272 2.6927 13.8533 2.51824 14.02C2.34379 14.1867 2.10718 14.2804 1.86047 14.2804Z" fill="white"/>
<path opacity="0.5" d="M6.5116 8.94703V0.947025C6.5116 0.711277 6.6096 0.485185 6.78406 0.318486C6.95851 0.151787 7.19512 0.058136 7.44183 0.058136C7.68854 0.058136 7.92515 0.151787 8.0996 0.318486C8.27406 0.485185 8.37206 0.711277 8.37206 0.947025V8.94703C7.44183 8.94703 7.44183 8.94703 6.5116 8.94703Z" fill="white"/>
<path opacity="0.5" d="M12.093 6.28036V0.680358C12.093 0.515335 12.191 0.35707 12.3655 0.240381C12.5399 0.123691 12.7765 0.058136 13.0233 0.058136C13.27 0.058136 13.5066 0.123691 13.681 0.240381C13.8555 0.35707 13.9535 0.515335 13.9535 0.680358V7.16925C13.0233 6.7248 13.0233 6.7248 12.093 6.28036Z" fill="white"/>
<path d="M6.5116 9.83592H8.37206L11.1628 7.16925V16.0581L8.37206 13.3915H6.5116V9.83592Z" fill="white"/>
<path opacity="0.5" d="M12.093 7.16925C14.6977 8.23592 16 9.92481 16 11.6137C16 13.3026 14.6977 14.9915 12.093 16.0581C13.7674 14.6359 14.5116 13.1248 14.5116 11.6137C14.5116 10.1026 13.7674 8.59147 12.093 7.16925Z" fill="white"/>
<path opacity="0.5" d="M12.093 9.74695C12.9302 10.1914 13.3953 10.9025 13.3953 11.6136C13.3953 12.3247 12.9302 13.0358 12.093 13.4803C12.6512 12.8581 12.6512 10.3692 12.093 9.74695Z" fill="white"/>
</svg>
